<?xml version="1.0" encoding="UTF-8"?>
<svg width="9px" height="15px" viewBox="0 0 9 15" version="1.1" xmlns="http://www.w3.org/2000/svg" xmlns:xlink="http://www.w3.org/1999/xlink">
    <!-- Generator: Sketch 61.2 (89653) - https://sketch.com -->
    <title>facebook</title>
    <desc>Created with Sketch.</desc>
    <g id="Page-1" stroke="none" stroke-width="1" fill="none" fill-rule="evenodd">
        <g id="Desktop-HD" transform="translate(-33.000000, -435.000000)" fill="#82608B" fill-rule="nonzero">
            <g id="Group" transform="translate(37.500000, 457.500000) rotate(-90.000000) translate(-37.500000, -457.500000) translate(15.500000, 450.500000)">
                <g id="facebook" transform="translate(36.769231, 7.000000) rotate(90.000000) translate(-36.769231, -7.000000) translate(33.000000, 0.000000)">
                    <path d="M2.11563269,4.69677406 L2.11563269,3.39612894 C2.11563269,1.51741931 3.52605449,0 5.27692293,0 L7.39255562,0 L7.39255562,2.55311821 L5.27692293,2.55311821 C5.03374675,2.55311821 4.76625297,2.91440852 4.76625297,3.34795689 L4.76625297,4.69677406 L7.39255562,4.69677406 L7.39255562,7.29806431 L4.74193535,7.29806431 L4.74193535,13.6326878 L2.11563269,13.6326878 L2.11563269,7.32215033 L0,7.32215033 L0,4.69677406 L2.11563269,4.69677406 Z" id="Shape"></path>
                </g>
            </g>
        </g>
    </g>
</svg>