<?xml version="1.0" encoding="UTF-8"?>
<svg width="184px" height="98px" viewBox="0 0 184 98" version="1.1" xmlns="http://www.w3.org/2000/svg" xmlns:xlink="http://www.w3.org/1999/xlink">
    <!-- Generator: Sketch 61.2 (89653) - https://sketch.com -->
    <title>Group 54</title>
    <desc>Created with Sketch.</desc>
    <defs>
        <polygon id="path-1" points="0.157710271 0.471857143 20.5189333 0.471857143 20.5189333 18.8461429 0.157710271 18.8461429"></polygon>
        <polygon id="path-3" points="0.2856 0.260007692 15.5229091 0.260007692 15.5229091 17.8101615 0.2856 17.8101615"></polygon>
        <polygon id="path-5" points="0.161785806 0.3191 5.7966 0.3191 5.7966 8 0.161785806 8"></polygon>
        <polygon id="path-7" points="0 98 184 98 184 0 0 0"></polygon>
    </defs>
    <g id="Page-1" stroke="none" stroke-width="1" fill="none" fill-rule="evenodd">
        <g id="Desktop-HD-Copy" transform="translate(-628.000000, -54.000000)">
            <g id="Group-54" transform="translate(628.000000, 54.000000)">
                <path d="M7.80184833,36.107809 C7.80184833,36.8646854 7.82939204,36.918748 8.57307239,36.918748 L10.4735888,36.918748 C11.9058621,36.918748 12.2363867,36.7295289 12.5118239,35.4320266 L12.6480928,34.7562441 C12.8423485,34.5399937 13.5294917,34.5399937 13.6672103,34.7832754 C13.6121229,35.648277 13.5845791,36.6214037 13.5845791,37.6485931 C13.5845791,38.6757825 13.6121229,39.6489093 13.6672103,40.5139108 C13.5294917,40.7571925 12.8423485,40.7842238 12.6480928,40.5409421 L12.5118239,39.8651597 C12.2363867,38.5676573 11.9058621,38.3514069 10.4735888,38.3514069 L8.57307239,38.3514069 C7.82939204,38.3514069 7.80184833,38.3784382 7.80184833,39.1893772 L7.80184833,42.4061018 C7.80184833,43.6481189 7.91202319,44.5131205 8.24254779,44.9726525 C8.60061611,45.4592159 9.12394672,45.6754663 11.134638,45.6754663 C13.5294917,45.6754663 14.4659781,45.5943724 15.9808825,42.5398356 C16.2012322,42.2424913 16.8898251,42.3520392 17,42.6764148 C16.8898251,44.0806197 16.2287759,46.2701549 15.8431639,47 C14.3833469,46.9459374 11.7405998,46.9189061 9.48201504,46.9189061 L5.90133188,46.9189061 C4.57923349,46.9189061 3.22959137,46.9459374 1.1652623,47 C0.944912567,46.8378122 0.944912567,46.189061 1.1652623,46.0539045 L2.45836731,45.8646854 C3.69783456,45.6754663 3.86309686,45.5132785 3.86309686,43.026399 L3.86309686,32.945147 C3.86309686,30.4867215 3.69783456,30.3245337 2.45836731,30.081252 L1.7697744,29.9460955 C1.52188095,29.7839077 1.55087433,29.1621878 1.82486183,29 C3.12086618,29.0540626 4.46905862,29.0810939 5.79115702,29.0810939 L11.6304249,29.0810939 C13.3917731,29.0810939 14.961765,29.0540626 15.3198333,29 C15.347377,29.4325008 15.540183,31.3787543 15.6779016,33.1898514 C15.5677267,33.4871957 14.9342213,33.5398356 14.6587841,33.2965539 C14.3558032,32.3518811 13.9701912,31.5409421 13.6121229,31.162504 C13.0887922,30.6489093 12.2639304,30.3245337 10.9128386,30.3245337 L8.71079098,30.3245337 C7.80184833,30.3245337 7.80184833,30.3785963 7.80184833,31.3787543 L7.80184833,36.107809 Z" id="Fill-1" fill="#796486"></path>
                <path d="M25.203115,33.1125669 C25.203115,30.509807 25.0421665,30.34336 23.8350529,30.09148 L23.1644342,29.9515466 C22.9498363,29.7836266 22.9230115,29.16792 23.2180837,29 C24.5056716,29.0559733 25.8469089,29.08396 27.1344967,29.08396 C28.4474974,29.08396 29.76191,29.0559733 31.0494978,29 C31.2640958,29.16792 31.2640958,29.7836266 31.0494978,29.9515466 L30.4071157,30.0634933 C29.2000021,30.2873866 29.0376418,30.509807 29.0376418,33.1125669 L29.0376418,39.5774866 C29.0376418,42.8504535 29.3863635,46.4607334 33.463725,46.4607334 C36.8972925,46.4607334 37.9420458,43.3262268 37.9420458,39.4935266 L37.9420458,36.1071401 C37.9420458,33.8402202 37.8361586,31.7132336 37.5410864,30.9855803 C37.2996637,30.3978603 36.7095193,30.2299403 35.9852511,30.09148 L35.260983,29.9515466 C35.046385,29.7276533 35.1000345,29.16792 35.260983,29 C36.7095193,29.0559733 37.7556844,29.08396 38.8540871,29.08396 C39.8480146,29.08396 40.8391184,29.0559733 41.8584587,29 C42.0194072,29.16792 42.0730567,29.7276533 41.8584587,29.9515466 L41.3756133,30.0634933 C40.6781699,30.2299403 40.1684997,30.3978603 39.927077,30.9855803 C39.6320048,31.7132336 39.5261176,33.8402202 39.5261176,36.1071401 L39.5261176,39.2416466 C39.5261176,41.8709202 39.2846949,44.2777735 37.8093339,45.9849601 C36.629045,47.3003334 34.6708386,48 32.4980341,48 C30.4593534,48 28.6366825,47.66416 27.1881462,46.4327467 C25.7932594,45.2293201 25.203115,43.1583068 25.203115,40.1092333 L25.203115,33.1125669 Z" id="Fill-3" fill="#796486"></path>
                <path d="M54.9782524,36.8563223 C54.9782524,37.7981745 55.0594245,37.8789047 56.6558087,37.8789047 C57.6298736,37.8789047 58.1980782,37.6367141 58.712168,37.1254229 C59.1721431,36.6679518 59.6862329,35.8068298 59.6862329,34.219136 C59.6862329,31.7972303 58.2521929,30.2378629 56.1417188,30.2378629 C55.0323671,30.2378629 54.9782524,30.3185931 54.9782524,31.6088599 L54.9782524,36.8563223 Z M51.2713941,33.4387442 C51.2713941,30.7491541 51.2172794,30.4531434 50.0822944,30.2916831 L49.3517457,30.1840428 C49.0811721,30.0494925 49.0811721,29.3767409 49.4058604,29.2421906 C51.4351624,29.1076403 53.5442123,29 56.1146615,29 C58.4145371,29 60.3897243,29.3498308 61.4164799,29.9687623 C62.9872308,30.8837045 63.7975275,32.2277913 63.7975275,33.9500354 C63.7975275,36.3450311 62.17551,37.3676135 60.9308715,37.986545 C60.6602979,38.1210953 60.6602979,38.2825557 60.7941606,38.5785664 C62.5799463,42.1830986 63.6892981,44.2013534 64.9880513,45.304666 C65.6915427,45.8697773 66.395034,46.0312377 66.8008944,46.0581478 C67.0444107,46.1926981 67.0444107,46.596349 66.9091239,46.7578094 C66.4762061,46.9461799 65.6103706,47 64.7715925,47 C62.2823154,47 60.7144126,46.1119679 59.5238888,44.1744433 C58.6580533,42.7482099 58.035734,41.4296168 57.4134147,40.0047997 C57.0887264,39.2768117 56.6558087,39.0629475 55.9793747,39.0629475 C55.0323671,39.0629475 54.9782524,39.1167676 54.9782524,39.6549689 L54.9782524,42.9634904 C54.9782524,45.4392163 55.1405965,45.6275867 56.3581777,45.8428673 L57.0887264,45.9774176 C57.2781279,46.1119679 57.2781279,46.7578094 57.0887264,46.9192698 C55.6546864,46.8654497 54.4100478,46.8385396 53.1112946,46.8385396 C51.7598507,46.8385396 50.5693269,46.8654497 49.1623442,46.9192698 C48.9458853,46.7578094 48.9458853,46.1119679 49.1623442,45.9774176 L49.8928929,45.8428673 C51.110474,45.6275867 51.2713941,45.4392163 51.2713941,42.9634904 L51.2713941,33.4387442 Z" id="Fill-5" fill="#796486"></path>
                <path d="M81.3657993,30.2631979 C78.064461,30.2631979 76.2930112,33.4211928 76.2930112,38.0057052 C76.2930112,41.3559258 77.4471375,46.7368021 81.8220818,46.7368021 C85.3381413,46.7368021 86.7055762,43.2232618 86.7055762,38.7746082 C86.7055762,34.0802525 84.6925651,30.2631979 81.3657993,30.2631979 M91,38.4176175 C91,44.4040773 87.0813383,48 81.312119,48 C75.9186617,48 72,44.3766165 72,38.6373041 C72,33.2015062 75.9709294,29 81.5805204,29 C87.1618587,29 91,32.8445154 91,38.4176175" id="Fill-7" fill="#796486"></path>
                <path d="M100.35606,33.4598119 C100.35606,30.7298664 100.301436,30.4055165 99.1543394,30.2703707 L98.3076727,30.162254 C98.0618662,30.0271082 98.0618662,29.4324666 98.3622963,29.2432625 C100.164877,29.1081167 102.2952,29 104.669892,29 C106.992835,29 108.52086,29.2702916 109.667957,29.7027582 C111.333978,30.324429 113,31.7569746 113,34.3788034 C113,38.8101636 108.493548,39.4588635 107.046021,39.4588635 C106.718279,39.4588635 106.472473,39.4588635 106.172042,39.4318343 C105.954985,39.2966885 105.898924,38.8642219 106.091544,38.7034695 C108.356989,37.9992887 108.82129,36.4045681 108.82129,34.4058326 C108.82129,32.4056745 107.78344,30.2433415 105.326813,30.2433415 C104.316275,30.2433415 104.261652,30.5406623 104.261652,31.6218288 L104.261652,43.026713 C104.261652,45.5404252 104.425523,45.7566585 105.654555,45.9444401 L106.527096,46.0810085 C106.827526,46.2147317 106.827526,46.8364024 106.527096,47 C104.997634,46.9445191 103.660791,46.9174899 102.349824,46.9174899 C101.038856,46.9174899 99.7278878,46.9445191 98.2544865,47 C97.9540563,46.8364024 97.8994327,46.2147317 98.1998628,46.0810085 L98.9631566,45.9444401 C100.192189,45.7296293 100.35606,45.5404252 100.35606,43.026713 L100.35606,33.4598119 Z" id="Fill-9" fill="#796486"></path>
                <path d="M125.802057,36.107809 C125.802057,36.8646854 125.8296,36.918748 126.573263,36.918748 L128.473737,36.918748 C129.905977,36.918748 130.236495,36.7295289 130.511926,35.4320266 L130.648191,34.7562441 C130.842443,34.5399937 131.52957,34.5399937 131.667286,34.7832754 C131.6122,35.648277 131.584657,36.6214037 131.584657,37.6485931 C131.584657,38.6757825 131.6122,39.6489093 131.667286,40.5139108 C131.52957,40.7571925 130.842443,40.7842238 130.648191,40.5409421 L130.511926,39.8651597 C130.236495,38.5676573 129.905977,38.3514069 128.473737,38.3514069 L126.573263,38.3514069 C125.8296,38.3514069 125.802057,38.3784382 125.802057,39.1893772 L125.802057,42.4061018 C125.802057,43.6481189 125.912229,44.5131205 126.242746,44.9726525 C126.600806,45.4592159 127.124125,45.6754663 129.134771,45.6754663 C131.52957,45.6754663 132.466035,45.5943724 133.980906,42.5398356 C134.20125,42.2424913 134.889828,42.3520392 135,42.6764148 C134.889828,44.0806197 134.228793,46.2701549 133.84319,47 C132.384856,46.9459374 129.739269,46.9189061 127.482185,46.9189061 L123.901583,46.9189061 C122.579515,46.9189061 121.229903,46.9459374 119.164171,47 C118.945276,46.8378122 118.945276,46.189061 119.164171,46.0539045 L120.458697,45.8646854 C121.698136,45.6754663 121.863394,45.5132785 121.863394,43.026399 L121.863394,32.945147 C121.863394,30.4867215 121.698136,30.3245337 120.458697,30.081252 L119.770119,29.9460955 C119.522232,29.7839077 119.551224,29.1621878 119.825206,29 C121.121181,29.0540626 122.469342,29.0810939 123.791411,29.0810939 L129.630547,29.0810939 C131.391855,29.0810939 132.961811,29.0540626 133.319871,29 C133.347414,29.4325008 133.540216,31.3787543 133.677932,33.1898514 C133.567759,33.4871957 132.934268,33.5398356 132.658837,33.2965539 C132.355863,32.3518811 131.97026,31.5409421 131.6122,31.162504 C131.088881,30.6489093 130.264038,30.3245337 128.912977,30.3245337 L126.710979,30.3245337 C125.802057,30.3245337 125.802057,30.3785963 125.802057,31.3787543 L125.802057,36.107809 Z" id="Fill-11" fill="#796486"></path>
                <path d="M149.654426,40.1092333 C150.292106,40.1092333 150.430732,40.0252733 150.20893,39.29762 L149.488075,37.0307001 C149.099922,35.8287464 148.600868,34.3174665 148.351341,33.7297465 C148.129539,34.3719668 147.575035,35.8832468 147.160616,37.1706334 L146.466027,39.2696333 C146.217959,40.0252733 146.355126,40.1092333 147.048256,40.1092333 L149.654426,40.1092333 Z M146.493752,41.5925266 C145.828347,41.5925266 145.745171,41.6205132 145.580279,42.1522599 L144.498996,45.3972401 C144.332645,45.9584464 144.303461,46.1823397 144.303461,46.4047601 C144.303461,46.574153 144.665348,46.7406 145.440194,46.8805334 L146.27341,47.0204667 C146.438302,47.2163734 146.493752,47.8600667 146.217959,48 C145.246118,47.9440267 144.24801,47.9440267 143.085011,47.91604 C142.142354,47.91604 141.504674,48 140.229314,48 C139.924337,47.83208 139.952062,47.24436 140.146139,47.0204667 L140.894719,46.9365067 C141.560124,46.8540197 142.114628,46.6286534 142.585957,45.5386464 C143.057285,44.4191798 143.584064,43.0758198 144.332645,41.0607799 L146.855639,34.2335065 C147.49186,32.4703465 147.963188,31.4908132 147.880013,30.6791999 C149.210823,30.3713466 150.236655,29 150.292106,29 C150.652533,29 150.818885,29.1399333 150.929785,29.5597333 C151.151587,30.3713466 151.48429,31.4068532 152.17742,33.3939065 L155.946589,44.3632065 C156.528818,46.0409334 156.778345,46.6846267 157.804178,46.8540197 L158.857736,47.0204667 C159.024087,47.161873 159.079538,47.83208 158.830011,48 C157.499201,47.9440267 156.003499,47.91604 154.560329,47.91604 C153.175527,47.91604 152.094244,47.9440267 150.818885,48 C150.513907,47.83208 150.458457,47.24436 150.763434,47.0204667 L151.650641,46.8805334 C152.288321,46.7685867 152.399222,46.574153 152.399222,46.4047601 C152.399222,46.2103264 152.205145,45.5386464 151.872443,44.5016668 L151.123862,42.0962865 C150.985236,41.6484999 150.763434,41.5925266 149.793052,41.5925266 L146.493752,41.5925266 Z" id="Fill-13" fill="#796486"></path>
                <g id="Group-17" transform="translate(163.000000, 29.000000)">
                    <mask id="mask-2" fill="white">
                        <use xlink:href="#path-1"></use>
                    </mask>
                    <g id="Clip-16"></g>
                    <path d="M17.9480133,13.8518571 C17.9480133,15.6161429 17.9480133,17.3261429 18.0037467,18.2218571 C17.80868,18.5475714 17.0284133,18.8461429 16.3596133,18.8461429 C16.3317467,18.8461429 15.4121467,17.4604286 14.1024133,15.8875714 L7.66668,8.12614286 C6.05041333,6.199 5.13081333,5.059 4.62921333,4.65185714 C4.48988,4.92328571 4.48988,5.38471429 4.48988,6.389 L4.48988,11.6532857 C4.48988,13.8518571 4.60134667,15.8875714 4.90788,16.619 C5.15868,17.189 5.79961333,17.3804286 6.52414667,17.4875714 L7.30441333,17.5975714 C7.52734667,17.8132857 7.47161333,18.3832857 7.30441333,18.5475714 C5.79961333,18.4932857 4.68641333,18.4647143 3.57028,18.4647143 C2.54068,18.4647143 1.50961333,18.4932857 0.45068,18.5475714 C0.28348,18.3832857 0.22628,17.8132857 0.45068,17.5975714 L0.924413333,17.5147143 C1.67681333,17.3804286 2.23414667,17.189 2.45561333,16.619 C2.76214667,15.8875714 2.84721333,13.8518571 2.84721333,11.6532857 L2.84721333,4.76042857 C2.84721333,3.26757143 2.81934667,2.83328571 2.65068,2.45328571 C2.42774667,1.99185714 2.03761333,1.66614286 1.06374667,1.53042857 L0.28348,1.42185714 C0.0884133333,1.20471429 0.11628,0.553285714 0.394946667,0.471857143 C1.70468,0.526142857 3.09801333,0.553285714 4.23908,0.553285714 C5.18654667,0.553285714 5.99468,0.526142857 6.57988,0.471857143 C6.85854667,1.69328571 8.66988,3.75614286 11.17788,6.66042857 L13.5172133,9.34614286 C14.7433467,10.7575714 15.55148,11.7075714 16.1924133,12.3318571 C16.30388,12.0604286 16.30388,11.599 16.30388,11.1104286 L16.30388,7.36471429 C16.30388,5.16757143 16.1924133,3.13185714 15.88588,2.399 C15.63508,1.829 15.0220133,1.639 14.2696133,1.53042857 L13.5172133,1.42185714 C13.2957467,1.20471429 13.3500133,0.636142857 13.5172133,0.471857143 C15.0220133,0.526142857 16.1088133,0.553285714 17.2513467,0.553285714 C18.2824133,0.553285714 19.2856133,0.526142857 20.3724133,0.471857143 C20.5396133,0.636142857 20.5953467,1.20471429 20.3724133,1.42185714 L19.8708133,1.50328571 C19.14628,1.61185714 18.6168133,1.829 18.3660133,2.399 C18.05948,3.13185714 17.9480133,5.16757143 17.9480133,7.36471429 L17.9480133,13.8518571 Z" id="Fill-15" fill="#796486" mask="url(#mask-2)"></path>
                </g>
                <path d="M2.19918243,62.2117755 C2.19918243,59.6337442 2.14829246,59.3265323 1.07818958,59.1991173 L0.287981499,59.0971852 C0.0589766544,58.9697702 0.0589766544,58.4077282 0.338871465,58.2293471 C2.02106755,58.101932 4.01001704,58 6.22655776,58 C8.39362213,58 9.81995477,58.2548301 10.8900577,58.663974 C12.4464424,59.2500833 14,60.6035143 14,63.0781979 C14,67.2644903 9.79450979,67.8774983 8.44309848,67.8774983 C8.13775869,67.8774983 7.90875384,67.8774983 7.62744542,67.8520153 C7.42388556,67.7246003 7.37299559,67.3154564 7.55252408,67.163974 C9.66728488,66.5 10.0998496,64.9936709 10.0998496,63.1036809 C10.0998496,61.2151066 9.13152663,59.1736342 6.83865096,59.1736342 C5.89577298,59.1736342 5.84488302,59.4553631 5.84488302,60.4746835 L5.84488302,71.2469187 C5.84488302,73.6210859 5.99755291,73.82495 7.14399075,74.0033311 L7.95964381,74.1307462 C8.23953862,74.2581612 8.23953862,74.8456862 7.95964381,75 C6.53189755,74.949034 5.28367979,74.923551 4.05949339,74.923551 C2.83672061,74.923551 1.61253421,74.949034 0.237091534,75 C-0.0428032767,74.8456862 -0.0936932423,74.2581612 0.186201568,74.1307462 L0.900074696,74.0033311 C2.04651253,73.799467 2.19918243,73.6210859 2.19918243,71.2469187 L2.19918243,62.2117755 Z" id="Fill-18" fill="#796486"></path>
                <path d="M26.1465747,67.5247509 C26.751042,67.5247509 26.8821314,67.4453521 26.6709319,66.7557589 L25.9892675,64.6090508 C25.6222174,63.4695311 25.1488393,62.0374122 24.9128786,61.4801503 C24.7016791,62.0903447 24.1773219,63.5209933 23.7825974,64.7413821 L23.1271508,66.7292926 C22.8911901,67.4453521 23.0208228,67.5247509 23.677726,67.5247509 L26.1465747,67.5247509 Z M23.1533687,68.9304035 C22.5226835,68.9304035 22.4440299,68.9568698 22.2867227,69.4597288 L21.2627695,72.5342264 C21.1040058,73.0664924 21.0777879,73.2782225 21.0777879,73.4899526 C21.0777879,73.6487502 21.4200767,73.8075478 22.1541768,73.9398791 L22.9436258,74.0722104 C23.100933,74.2574743 23.1533687,74.8676687 22.8911901,75 C21.9706518,74.9470675 21.0253522,74.9470675 19.9227455,74.9206012 C19.0298816,74.9206012 18.4268707,75 17.217936,75 C16.928083,74.8412024 16.9543008,74.2839405 17.1392824,74.0722104 L17.8486212,73.9928116 C18.4778499,73.9134128 19.0036637,73.7016827 19.4493674,72.6680281 C19.8965276,71.6079072 20.3961235,70.3345859 21.1040058,68.4260742 L23.4942009,61.9580134 C24.0986683,60.2876981 24.544372,59.3599085 24.4657184,58.5909165 C25.7270889,58.2997876 26.6971498,57 26.751042,57 C27.0918743,57 27.2491814,57.1323313 27.3555094,57.5307956 C27.5652523,58.2997876 27.8798667,59.2805097 28.5367698,61.1625551 L32.1082252,71.5535043 C32.6602569,73.1444208 32.8962177,73.7546153 33.8677351,73.9134128 L34.8654704,74.0722104 C35.0227776,74.2045417 35.0752133,74.8412024 34.8392526,75 C33.5793386,74.9470675 32.160661,74.9206012 30.794419,74.9206012 C29.4820694,74.9206012 28.4581162,74.9470675 27.2491814,75 C26.9607849,74.8412024 26.9083492,74.2839405 27.1967457,74.0722104 L28.0371738,73.9398791 C28.6416412,73.834014 28.7465127,73.6487502 28.7465127,73.4899526 C28.7465127,73.3046888 28.5629876,72.6680281 28.2469167,71.687306 L27.5390345,69.4067963 C27.4079451,68.9833361 27.1967457,68.9304035 26.277664,68.9304035 L23.1533687,68.9304035 Z" id="Fill-20" fill="#796486"></path>
                <path d="M44.2239301,59.6162031 C44.2239301,58.9879081 44.2239301,58.8573156 43.6188646,58.8573156 L42.0565939,58.8573156 C40.2176419,58.8573156 39.6880349,59.9035067 38.9334498,61.8145103 C38.6302183,61.9712213 38.1523144,61.9189843 38,61.5779927 C38.529607,59.7729141 38.6553712,58.1506651 38.8328384,57.1305925 C38.9334498,57.052237 39.059214,57 39.1849782,57 C39.3107424,57 39.4365066,57.0261185 39.5371179,57.104474 C39.6628821,57.5499395 39.739738,57.6544135 41.6541485,57.6544135 L51.0263755,57.6544135 C52.6892576,57.6544135 53.0665502,57.628295 53.2929258,57.0783555 C53.3935371,57.0261185 53.470393,57 53.62131,57 C53.7722271,57 53.9482969,57.104474 54,57.1828295 C53.7470742,58.0723096 53.569607,60.1908102 53.62131,61.6824667 C53.4955459,61.9189843 52.8150218,61.9712213 52.6892576,61.7622733 C52.260262,60.0863362 51.9081223,58.8573156 50.0188646,58.8573156 L48.5068996,58.8573156 C47.9018341,58.8573156 47.8263755,58.9356711 47.8263755,59.6162031 L47.8263755,71.1533253 C47.8263755,73.5866989 47.9772926,73.7956469 49.1119651,73.9523579 L50.119476,74.0829504 C50.2955459,74.2396614 50.2955459,74.841838 50.119476,75 C48.4817467,74.946312 47.2227074,74.9201935 46.0880349,74.9201935 C44.8793013,74.9201935 43.568559,74.946312 41.8050655,75 C41.6038428,74.841838 41.6038428,74.2396614 41.8050655,74.0829504 L42.939738,73.9523579 C44.0730131,73.8217654 44.2239301,73.5866989 44.2239301,71.1533253 L44.2239301,59.6162031 Z" id="Fill-22" fill="#796486"></path>
                <path d="M65.8157489,71.1959527 C65.8157489,73.5956029 65.9678683,73.773984 67.1355253,73.9778481 L67.8468242,74.1052632 C68.0510586,74.2581612 68.0257054,74.8456862 67.821471,75 C66.4509882,74.9476183 65.2058629,74.9221352 64.0128527,74.9221352 C62.7930807,74.9221352 61.5240107,74.9476183 60.1521194,75 C59.9492935,74.8456862 59.9492935,74.2581612 60.1521194,74.1052632 L60.8634183,73.9778481 C62.0310753,73.773984 62.1831947,73.5956029 62.1831947,71.1959527 L62.1831947,61.8026316 C62.1831947,59.4029813 62.0310753,59.2246003 60.8634183,59.0193205 L60.1521194,58.8933211 C59.9492935,58.7390073 59.9492935,58.1528981 60.1521194,58 C61.5240107,58.050966 62.7930807,58.076449 64.0128527,58.076449 C65.2058629,58.076449 66.4763414,58.050966 67.8468242,58 C68.0510586,58.1528981 68.0510586,58.7390073 67.8468242,58.8933211 L67.1355253,59.0193205 C65.9678683,59.2246003 65.8157489,59.4029813 65.8157489,61.8026316 L65.8157489,71.1959527 Z" id="Fill-24" fill="#796486"></path>
                <path d="M79.3395235,76 C76.9072694,76 75.4001222,75.323395 74.8459377,75.010339 C74.3430666,74.4390478 74,72.5664823 74,70.7977879 C74.1847282,70.4587641 74.7931582,70.434239 75.0042761,70.7198846 C75.5320709,72.4106756 77.3031155,74.8025968 79.5506414,74.8025968 C81.5064142,74.8025968 82.4051313,73.4767973 82.4051313,72.175523 C82.4051313,70.0692474 80.3965791,68.8199086 78.8102627,68.0394326 C76.9072694,67.1045925 74.819548,65.5436403 74.819548,62.968502 C74.7931582,60.0298149 77.1183873,58 80.9522297,58 C81.8245571,58 82.9080024,58.1038711 83.965058,58.4169271 C84.3081246,58.5207983 84.5470984,58.5727338 84.8637752,58.6246694 C85.0763592,59.1974032 85.3402566,60.601106 85.3402566,62.3438327 C85.2068418,62.6568887 84.5470984,62.6828565 84.3081246,62.421736 C83.8594991,61.0959365 82.7232743,59.1974032 80.820281,59.1974032 C79.0756261,59.1974032 78.1226634,60.3154604 78.1226634,61.6152921 C78.1226634,62.8126954 79.2075748,63.9047848 80.5299939,64.5813898 L82.2731827,65.4917047 C83.9122786,66.3500842 86,67.8576581 86,70.7198846 C86,73.9196922 83.3317043,76 79.3395235,76" id="Fill-26" fill="#796486"></path>
                <path d="M98.3395235,76 C95.9072694,76 94.4001222,75.323395 93.8459377,75.010339 C93.3430666,74.4390478 93,72.5664823 93,70.7977879 C93.1847282,70.4587641 93.7931582,70.434239 94.0042761,70.7198846 C94.5320709,72.4106756 96.3031155,74.8025968 98.5506414,74.8025968 C100.506414,74.8025968 101.405131,73.4767973 101.405131,72.175523 C101.405131,70.0692474 99.3965791,68.8199086 97.8102627,68.0394326 C95.9072694,67.1045925 93.819548,65.5436403 93.819548,62.968502 C93.7931582,60.0298149 96.1183873,58 99.9522297,58 C100.823091,58 101.908002,58.1038711 102.965058,58.4169271 C103.308125,58.5207983 103.545632,58.5727338 103.863775,58.6246694 C104.076359,59.1974032 104.340257,60.601106 104.340257,62.3438327 C104.206842,62.6568887 103.545632,62.6828565 103.308125,62.421736 C102.859499,61.0959365 101.723274,59.1974032 99.820281,59.1974032 C98.0756261,59.1974032 97.1226634,60.3154604 97.1226634,61.6152921 C97.1226634,62.8126954 98.2075748,63.9047848 99.5299939,64.5813898 L101.273183,65.4917047 C102.912279,66.3500842 105,67.8576581 105,70.7198846 C105,73.9196922 102.330238,76 98.3395235,76" id="Fill-28" fill="#796486"></path>
                <path d="M117.376611,64.711942 C117.376611,65.4268821 117.402387,65.4792638 118.099761,65.4792638 L119.881146,65.4792638 C121.224344,65.4792638 121.533652,65.299467 121.791408,64.0748668 L121.920286,63.4363757 C122.102148,63.2325117 122.746539,63.2325117 122.875418,63.4618588 C122.823866,64.2787308 122.798091,65.197535 122.798091,66.1673051 C122.798091,67.1370753 122.823866,68.0558794 122.875418,68.8727515 C122.746539,69.1035143 122.102148,69.1289973 121.920286,68.8982345 L121.791408,68.2597435 C121.533652,67.0351432 121.224344,66.8312791 119.881146,66.8312791 L118.099761,66.8312791 C117.402387,66.8312791 117.376611,66.8567622 117.376611,67.6226682 L117.376611,70.6608095 C117.376611,71.8344437 117.479714,72.6499001 117.789021,73.084527 C118.125537,73.5446369 118.615274,73.748501 120.501193,73.748501 C122.746539,73.748501 123.624344,73.672052 125.044869,70.7882245 C125.251074,70.5064957 125.896897,70.6098434 126,70.9156396 C125.896897,72.2421719 125.27685,74.3091272 124.91599,75 C123.547017,74.9476183 121.06969,74.9221352 118.95179,74.9221352 L115.595227,74.9221352 C114.356563,74.9221352 113.090692,74.9476183 111.154654,75 C110.948449,74.8456862 110.948449,74.2340939 111.154654,74.1052632 L112.367542,73.9268821 C113.528878,73.748501 113.684964,73.5956029 113.684964,71.2469187 L113.684964,61.7261825 C113.684964,59.4029813 113.528878,59.2500833 112.367542,59.0193205 L111.721718,58.8933211 C111.489737,58.7390073 111.515513,58.1528981 111.77327,58 C112.987589,58.050966 114.252029,58.076449 115.492124,58.076449 L120.965155,58.076449 C122.617661,58.076449 124.089737,58.050966 124.424821,58 C124.450597,58.4077282 124.631026,60.2453364 124.759905,61.9555296 C124.656802,62.2372585 124.063962,62.2882245 123.806205,62.0574617 C123.522673,61.1655563 123.160382,60.3982345 122.823866,60.0414724 C122.334129,59.5558794 121.559427,59.2500833 120.293556,59.2500833 L118.22864,59.2500833 C117.376611,59.2500833 117.376611,59.3010493 117.376611,60.2453364 L117.376611,64.711942 Z" id="Fill-30" fill="#796486"></path>
                <path d="M137.646502,65.4204112 C137.646502,66.309733 137.723022,66.3858398 139.23074,66.3858398 C140.150391,66.3858398 140.687445,66.1575195 141.172068,65.6741005 C141.605679,65.2428287 142.091719,64.4282043 142.091719,62.9300282 C142.091719,60.6425966 140.738458,59.16838 138.744699,59.16838 C137.697515,59.16838 137.646502,59.2458962 137.646502,60.4650141 L137.646502,65.4204112 Z M134.146443,62.1929199 C134.146443,59.651799 134.09543,59.3727408 133.021323,59.2205273 L132.332647,59.1176422 C132.077582,58.9907975 132.077582,58.3565744 132.38366,58.2283203 C134.299482,58.1028851 136.291824,58 138.719193,58 C140.891497,58 142.756306,58.3312054 143.72697,58.9146908 C145.209181,59.7800531 145.975793,61.0499088 145.975793,62.6763389 C145.975793,64.9384016 144.442569,65.9024208 143.267853,66.4873155 C143.011371,66.6141602 143.011371,66.7677831 143.138903,67.0468413 C144.825166,70.4519151 145.873767,72.3574034 147.099496,73.3989388 C147.764083,73.9330957 148.427252,74.0853092 148.811266,74.1106782 C149.042242,74.2375228 149.042242,74.6194661 148.913292,74.7716797 C148.505188,74.9492621 147.687563,75 146.895444,75 C144.544595,75 143.062384,74.161416 141.93868,72.3320345 C141.121055,70.9846626 140.534406,69.7401758 139.946339,68.3928038 C139.638844,67.7078428 139.23074,67.503482 138.59166,67.503482 C137.697515,67.503482 137.646502,67.5556292 137.646502,68.0630078 L137.646502,71.187614 C137.646502,73.5257835 137.799541,73.7033659 138.948751,73.9063174 L139.638844,74.0345714 C139.818806,74.161416 139.818806,74.7716797 139.638844,74.9238932 C138.285582,74.8731554 137.109449,74.8477864 135.88372,74.8477864 C134.60556,74.8477864 133.483274,74.8731554 132.154102,74.9238932 C131.948633,74.7716797 131.948633,74.161416 132.154102,74.0345714 L132.842777,73.9063174 C133.993404,73.7033659 134.146443,73.5257835 134.146443,71.187614 L134.146443,62.1929199 Z" id="Fill-32" fill="#796486"></path>
                <path d="M159.815749,71.1959527 C159.815749,73.5956029 159.967868,73.773984 161.135525,73.9778481 L161.846824,74.1052632 C162.051059,74.2581612 162.025705,74.8456862 161.82288,75 C160.450988,74.9476183 159.205863,74.9221352 158.012853,74.9221352 C156.793081,74.9221352 155.524011,74.9476183 154.152119,75 C153.949294,74.8456862 153.949294,74.2581612 154.152119,74.1052632 L154.863418,73.9778481 C156.032484,73.773984 156.184603,73.5956029 156.184603,71.1959527 L156.184603,61.8026316 C156.184603,59.4029813 156.032484,59.2246003 154.863418,59.0193205 L154.152119,58.8933211 C153.949294,58.7390073 153.949294,58.1528981 154.152119,58 C155.524011,58.050966 156.793081,58.076449 158.012853,58.076449 C159.205863,58.076449 160.476341,58.050966 161.846824,58 C162.051059,58.1528981 162.051059,58.7390073 161.846824,58.8933211 L161.135525,59.0193205 C159.967868,59.2246003 159.815749,59.4029813 159.815749,61.8026316 L159.815749,71.1959527 Z" id="Fill-34" fill="#796486"></path>
                <g id="Group-38" transform="translate(168.000000, 57.000000)">
                    <mask id="mask-4" fill="white">
                        <use xlink:href="#path-3"></use>
                    </mask>
                    <g id="Clip-37"></g>
                    <path d="M6.76378182,7.18916154 C6.76378182,7.92723846 6.78996364,7.98131538 7.49687273,7.98131538 L9.30778182,7.98131538 C10.6721455,7.98131538 10.9863273,7.7957 11.2481455,6.53146923 L11.3790545,5.87231538 C11.5623273,5.66185385 12.2183273,5.66185385 12.3492364,5.89862308 C12.2968727,6.74193077 12.2706909,7.69046923 12.2706909,8.69162308 C12.2706909,9.69277692 12.2968727,10.6413154 12.3492364,11.4846231 C12.2183273,11.7228538 11.5623273,11.7491615 11.3790545,11.5109308 L11.2481455,10.8517769 C10.9863273,9.58754615 10.6721455,9.37708462 9.30778182,9.37708462 L7.49687273,9.37708462 C6.78996364,9.37708462 6.76378182,9.40339231 6.76378182,10.1940846 L6.76378182,13.3305462 C6.76378182,14.5421615 6.86850909,15.3840077 7.18269091,15.8327 C7.52305455,16.3077 8.02196364,16.5181615 9.9376,16.5181615 C12.2183273,16.5181615 13.1099636,16.4392385 14.5514182,13.4620846 C14.7623273,13.1712385 15.4183273,13.2779308 15.5230545,13.5936231 C15.4183273,14.9630846 14.7885091,17.0969308 14.4219636,17.8101615 C13.0314182,17.7560846 10.5136,17.7297769 8.36378182,17.7297769 L4.95432727,17.7297769 C3.69614545,17.7297769 2.41032727,17.7560846 0.443781818,17.8101615 C0.232872727,17.6508538 0.232872727,17.0194692 0.443781818,16.8864692 L1.67578182,16.7023154 C2.85541818,16.5181615 3.01250909,16.3603154 3.01250909,13.9356231 L3.01250909,4.10677692 C3.01250909,1.70839231 2.85541818,1.55054615 1.67578182,1.31231538 L1.01978182,1.18223846 C0.784145455,1.02293077 0.810327273,0.417853846 1.07214545,0.260007692 C2.3056,0.312623077 3.58996364,0.338930769 4.8496,0.338930769 L10.4088727,0.338930769 C12.0874182,0.338930769 13.5826909,0.312623077 13.9230545,0.260007692 C13.9492364,0.680930769 14.1325091,2.57800769 14.2634182,4.34354615 C14.1586909,4.63439231 13.5565091,4.68700769 13.2932364,4.44877692 C13.0052364,3.52800769 12.6386909,2.73585385 12.2968727,2.36754615 C11.7979636,1.86623846 11.0125091,1.55054615 9.72669091,1.55054615 L7.62923636,1.55054615 C6.76378182,1.55054615 6.76378182,1.60316154 6.76378182,2.57800769 L6.76378182,7.18916154 Z" id="Fill-36" fill="#796486" mask="url(#mask-4)"></path>
                </g>
                <g id="Group-41" transform="translate(60.000000, 90.000000)">
                    <mask id="mask-6" fill="white">
                        <use xlink:href="#path-5"></use>
                    </mask>
                    <g id="Clip-40"></g>
                    <path d="M4.2996,5.9441 C4.2996,5.6576 4.1991,5.4266 3.9996,5.2526 C3.8001,5.0771 3.4491,4.9136 2.9466,4.7591 C2.0841,4.4996 1.4301,4.1936 0.9861,3.8426 C0.5391,3.4901 0.3156,3.0101 0.3156,2.4011 C0.3156,1.7891 0.5676,1.2896 1.0701,0.9026 C1.5726,0.5141 2.2131,0.3191 2.9916,0.3191 C3.8196,0.3191 4.4856,0.5291 4.9881,0.9446 C5.4936,1.3616 5.7366,1.9091 5.7201,2.5856 L5.7096,2.6171 L4.2591,2.6171 C4.2591,2.2436 4.1451,1.9586 3.9201,1.7576 C3.6951,1.5581 3.3786,1.4576 2.9721,1.4576 C2.6031,1.4576 2.3166,1.5461 2.1156,1.7246 C1.9146,1.9031 1.8126,2.1296 1.8126,2.4071 C1.8126,2.6591 1.9221,2.8676 2.1411,3.0296 C2.3601,3.1916 2.7366,3.3641 3.2736,3.5441 C4.0941,3.7766 4.7196,4.0811 5.1501,4.4546 C5.5806,4.8296 5.7966,5.3216 5.7966,5.9336 C5.7966,6.5726 5.5476,7.0766 5.0481,7.4456 C4.5501,7.8161 3.8901,8.0006 3.0696,8.0006 C2.2656,8.0006 1.5771,7.7996 0.9996,7.4006 C0.4251,7.0001 0.1446,6.4046 0.1626,5.6111 L0.1731,5.5796 L1.6236,5.5796 C1.6236,6.0206 1.7526,6.3461 2.0136,6.5546 C2.2731,6.7631 2.6241,6.8666 3.0696,6.8666 C3.4686,6.8666 3.7746,6.7841 3.9846,6.6161 C4.1946,6.4481 4.2996,6.2246 4.2996,5.9441" id="Fill-39" fill="#796486" mask="url(#mask-6)"></path>
                </g>
                <mask id="mask-8" fill="white">
                    <use xlink:href="#path-7"></use>
                </mask>
                <g id="Clip-43"></g>
                <polygon id="Fill-42" fill="#796486" mask="url(#mask-8)" points="68.001 98 68.999 98 68.999 91 68.001 91"></polygon>
                <polygon id="Fill-44" fill="#796486" mask="url(#mask-8)" points="78 98 76.5115585 98 73.5197614 93.2798875 73.4884415 93.2841069 73.4884415 98 72 98 72 91 73.4884415 91 76.4802386 95.7158931 76.5115585 95.7116737 76.5115585 91 78 91"></polygon>
                <path d="M85.9777384,95.6498047 L85.9886013,95.6785156 C86.002568,96.403125 85.7511678,96.971875 85.2344007,97.3833984 C84.7191854,97.7949219 84.005333,98 83.0974989,98 C82.1710426,98 81.4230493,97.7375 80.8535192,97.2138672 C80.285541,96.6875 80,96.009375 80,95.178125 L80,93.8273437 C80,92.9988281 80.2777817,92.3193359 80.8333451,91.7929688 C81.3873567,91.2638672 82.1167277,91 83.0183544,91 C83.9587774,91 84.6943558,91.2023437 85.2250896,91.6070313 C85.7542715,92.0130859 86.013431,92.5832031 85.9994643,93.3173828 L85.9886013,93.3460937 L84.4817519,93.3460937 C84.4817519,92.9099609 84.3622592,92.5845703 84.1248257,92.3726563 C83.8842884,92.1580078 83.5164992,92.0513672 83.0183544,92.0513672 C82.5543503,92.0513672 82.1943204,92.2154297 81.933609,92.5449219 C81.6744496,92.8730469 81.5440939,93.2982422 81.5440939,93.8177734 L81.5440939,95.178125 C81.5440939,95.7017578 81.680657,96.1283203 81.9537831,96.4578125 C82.2284611,96.7886719 82.610217,96.9541016 83.0974989,96.9541016 C83.5599511,96.9541016 83.9060144,96.8460937 84.1356887,96.6341797 C84.3622592,96.4195313 84.4770963,96.0927734 84.4770963,95.6498047 L85.9777384,95.6498047 Z" id="Fill-45" fill="#796486" mask="url(#mask-8)"></path>
                <polygon id="Fill-46" fill="#796486" mask="url(#mask-8)" points="91.453492 94.9226442 88.5627936 94.9226442 88.5627936 96.9226442 92 96.9226442 92 98 87 98 87 91 91.9890385 91 91.9890385 92.0815752 88.5627936 92.0815752 88.5627936 93.8410689 91.453492 93.8410689"></polygon>
                <polygon id="Fill-47" fill="#796486" mask="url(#mask-8)" points="101 98 99.5244686 98 99.5244686 92.3034865 98 92.3034865 98 91.2454437 101 91"></polygon>
                <path d="M106.451737,94.6640625 C106.692308,94.6640625 106.903178,94.6189453 107.085833,94.5287109 C107.268488,94.4384766 107.414018,94.3167969 107.522424,94.1636719 L107.522424,93.3693359 C107.522424,92.9427734 107.427383,92.6160156 107.238788,92.3904297 C107.048708,92.1648438 106.794773,92.0513672 106.476982,92.0513672 C106.178497,92.0513672 105.939412,92.1785156 105.756757,92.4328125 C105.574102,92.6871094 105.482031,92.9988281 105.482031,93.3693359 C105.482031,93.7589844 105.565192,94.0720703 105.731512,94.3085938 C105.896347,94.5464844 106.136917,94.6640625 106.451737,94.6640625 M106.273537,96.9541016 C106.638848,96.9541016 106.938818,96.8269531 107.171963,96.5726562 C107.406593,96.3183594 107.522424,95.9642578 107.522424,95.5103516 L107.522424,95.0701172 C107.356103,95.2669922 107.161568,95.4146484 106.934363,95.5144531 C106.707158,95.6142578 106.463617,95.6634766 106.203742,95.6634766 C105.516187,95.6634766 104.977131,95.4583984 104.586576,95.046875 C104.19602,94.6353516 104,94.0761719 104,93.3693359 C104,92.6871094 104.23166,92.1224609 104.694981,91.6726563 C105.158301,91.2242188 105.750817,91 106.472527,91 C107.216513,91 107.823879,91.2310547 108.294624,91.6917969 C108.76537,92.1539063 109,92.7910156 109,93.6085937 L109,95.4392578 C109,96.2253906 108.743095,96.8474609 108.230769,97.3095703 C107.718444,97.7703125 107.066528,98 106.273537,98 C106.016632,98 105.752302,97.9740234 105.479061,97.9234375 C105.207306,97.8714844 104.950401,97.7990234 104.711316,97.7060547 L104.959311,96.7203125 C105.173151,96.8009766 105.381051,96.8597656 105.584497,96.8980469 C105.786457,96.9349609 106.016632,96.9541016 106.273537,96.9541016" id="Fill-48" fill="#796486" mask="url(#mask-8)"></path>
                <path d="M113.451737,94.6640625 C113.692308,94.6640625 113.903178,94.6189453 114.085833,94.5287109 C114.268488,94.4384766 114.414018,94.3167969 114.522424,94.1636719 L114.522424,93.3693359 C114.522424,92.9427734 114.427383,92.6160156 114.238788,92.3904297 C114.048708,92.1648438 113.794773,92.0513672 113.476982,92.0513672 C113.178497,92.0513672 112.939412,92.1785156 112.756757,92.4328125 C112.574102,92.6871094 112.482031,92.9988281 112.482031,93.3693359 C112.482031,93.7589844 112.565192,94.0720703 112.731512,94.3085938 C112.896347,94.5464844 113.136917,94.6640625 113.451737,94.6640625 M113.273537,96.9541016 C113.638848,96.9541016 113.938818,96.8269531 114.171963,96.5726562 C114.406593,96.3183594 114.522424,95.9642578 114.522424,95.5103516 L114.522424,95.0701172 C114.356103,95.2669922 114.161568,95.4146484 113.934363,95.5144531 C113.707158,95.6142578 113.463617,95.6634766 113.203742,95.6634766 C112.516187,95.6634766 111.977131,95.4583984 111.586576,95.046875 C111.19602,94.6353516 111,94.0761719 111,93.3693359 C111,92.6871094 111.23166,92.1224609 111.694981,91.6726563 C112.158301,91.2242188 112.750817,91 113.472527,91 C114.216513,91 114.823879,91.2310547 115.294624,91.6917969 C115.76537,92.1539063 116,92.7910156 116,93.6085937 L116,95.4392578 C116,96.2253906 115.743095,96.8474609 115.230769,97.3095703 C114.718444,97.7703125 114.066528,98 113.273537,98 C113.016632,98 112.752302,97.9740234 112.479061,97.9234375 C112.207306,97.8714844 111.950401,97.7990234 111.711316,97.7060547 L111.959311,96.7203125 C112.173151,96.8009766 112.381051,96.8597656 112.584497,96.8980469 C112.786457,96.9349609 113.016632,96.9541016 113.273537,96.9541016" id="Fill-49" fill="#796486" mask="url(#mask-8)"></path>
                <path d="M120.545084,94.4958984 C120.283304,94.4958984 120.060791,94.5355469 119.877545,94.6148438 C119.692845,94.6941406 119.548866,94.8048828 119.447062,94.9443359 L119.447062,95.309375 C119.447062,95.8330078 119.548866,96.2376953 119.752472,96.5234375 C119.956079,96.8105469 120.225131,96.9541016 120.559628,96.9541016 C120.862129,96.9541016 121.102094,96.8337891 121.280977,96.5972656 C121.45986,96.3580078 121.548575,96.0585938 121.548575,95.6962891 C121.548575,95.3230469 121.458406,95.0291016 121.278069,94.8158203 C121.097731,94.6025391 120.853403,94.4958984 120.545084,94.4958984 M120.853403,91 C121.135544,91 121.39587,91.0246094 121.635835,91.0738281 C121.877254,91.1216797 122.114311,91.1914062 122.349913,91.2857422 L122.091041,92.2851562 C121.86562,92.2140625 121.663467,92.1607422 121.484584,92.1238281 C121.305701,92.0882812 121.097731,92.0705078 120.863583,92.0705078 C120.438918,92.0705078 120.09715,92.2236328 119.836824,92.5285156 C119.576498,92.8333984 119.447062,93.2585938 119.447062,93.8041016 L119.447062,94.0242188 C119.639034,93.8464844 119.868819,93.7083984 120.134962,93.6099609 C120.401105,93.5128906 120.699244,93.4636719 121.027923,93.4636719 C121.647469,93.4636719 122.130308,93.6701172 122.479348,94.0830078 C122.826934,94.4958984 123,95.0332031 123,95.6962891 C123,96.3785156 122.776033,96.9335938 122.325189,97.3601563 C121.874346,97.7867188 121.28534,98 120.559628,98 C119.804828,98 119.188191,97.7580078 118.714078,97.2712891 C118.238511,96.7859375 118,96.1201172 118,95.2765625 L118,93.8505859 C118,92.9878906 118.269052,92.2974609 118.807155,91.7779297 C119.346713,91.2597656 120.028796,91 120.853403,91" id="Fill-50" fill="#796486" mask="url(#mask-8)"></path>
                <path d="M93.7963032,1.93959399 C93.3930475,1.85905265 93.0273711,1.8234032 92.6978288,1.84584915 C92.3841855,0.86482918 92.1066762,0.624525499 91.7005298,0.108268691 C91.6528328,0.0356494471 91.5747834,0 91.4996246,0 C91.4100122,0 91.3478617,0.0356494471 91.297274,0.108268691 C90.8810101,0.624525499 90.616509,0.86482918 90.2884121,1.84584915 C89.9733234,1.8234032 89.5946388,1.85905265 89.202946,1.93959399 C89.0916532,1.97656379 89.0020408,2.06370688 89.0020408,2.17989767 C88.9875872,2.29608846 89.0511831,2.4109589 89.1523583,2.4479287 C89.9603151,2.78989932 90.7061214,3.29163228 91.3102823,3.92275953 C91.4100122,4.02574682 91.5747834,4.02574682 91.6759586,3.92275953 C92.2945731,3.29163228 93.0273711,2.78989932 93.8338826,2.4479287 C93.9466207,2.4109589 94.0102166,2.29608846 93.9986537,2.17989767 C93.9870908,2.06370688 93.9104867,1.97656379 93.7963032,1.93959399" id="Fill-51" fill="#796486" mask="url(#mask-8)"></path>
                <path d="M31.5257301,13.8062971 L31.5257301,13.8062971 C31.3495163,13.6639288 31.1374868,13.5804244 30.8996699,13.5804244 C30.1862192,13.5804244 29.6117338,14.1307324 29.6117338,14.8083504 C29.6117338,15.2532512 29.8008412,15.659822 30.1002613,15.9459274 C30.3996814,16.247091 30.8251731,16.4209446 31.2864805,16.4209446 L151.713519,16.4209446 C152.174827,16.4209446 152.600319,16.247091 152.901171,15.9459274 C153.213485,15.659822 153.40116,15.2532512 153.40116,14.8083504 C153.40116,14.1307324 152.825242,13.5804244 152.111791,13.5804244 C151.875407,13.5804244 151.650484,13.6639288 151.475703,13.8062971 C151.550199,13.8295688 151.613235,13.8514716 151.674838,13.9048597 C151.990017,14.1307324 152.064514,14.559206 151.826697,14.853525 C151.587448,15.1697467 151.137601,15.2299795 150.823855,14.9972621 C150.725003,14.9438741 150.649074,14.8453114 150.600364,14.7481177 C150.475725,14.4852841 150.551655,14.1526352 150.674861,13.8898015 C150.838181,13.5420945 151.137601,13.255989 151.512951,13.1136208 C151.702058,13.0383299 151.898329,13 152.111791,13 C153.151882,13 154,13.8062971 154,14.8083504 C154,15.4188912 153.752155,15.9691992 153.338124,16.3607118 C152.9112,16.7590691 152.352473,17 151.713519,17 L31.2864805,17 C30.661853,17 30.085935,16.7590691 29.6747696,16.3607118 C29.260739,15.9691992 29,15.4188912 29,14.8083504 C29,13.8062971 29.8481181,13 30.8996699,13 C31.101671,13 31.3008069,13.0383299 31.4884816,13.1136208 C31.8623986,13.255989 32.176145,13.5420945 32.339465,13.8898015 C32.4497777,14.1526352 32.5386008,14.4852841 32.4010682,14.7481177 C32.3509261,14.8453114 32.2764292,14.9438741 32.1890386,14.9972621 C31.8623986,15.2299795 31.4125521,15.1697467 31.1761679,14.853525 C30.9354857,14.559206 31.0114152,14.1307324 31.3265942,13.9048597 C31.3867648,13.8514716 31.4498006,13.8295688 31.5257301,13.8062971" id="Fill-52" fill="#796486" mask="url(#mask-8)"></path>
                <path d="M118.26062,14.0766391 L118.26062,14.0766391 C118.588159,13.9697911 118.898535,13.8476791 119.184595,13.6881009 C119.685201,13.4202871 120.121443,13.099743 120.5348,12.7556092 C121.458775,11.9466172 122.244011,10.9544571 123.206605,10.1898694 C123.731526,9.77774141 124.31795,9.44887157 125.004495,9.30455739 C125.829779,9.12000174 126.752324,9.25737775 127.53899,9.5335174 C129.088007,10.0899596 129.898989,11.2208833 130.634164,12.2435714 C130.961703,12.6945532 131.272079,13.1219452 131.60963,13.4508151 C131.807012,13.6575729 132.020127,13.8240893 132.246115,13.9545271 C132.444927,14.1002289 132.669484,14.1987511 132.882599,14.2681329 C133.208708,14.3666551 133.531956,14.4055089 133.83089,14.3666551 C134.192756,14.3291889 134.530307,14.2140151 134.794913,14.0155831 C134.930792,13.9087351 135.055228,13.7866231 135.15678,13.6423089 L135.093846,13.6423089 C134.593241,13.6423089 134.192756,13.252383 134.192756,12.7778114 C134.192756,12.2976892 134.593241,11.9077633 135.093846,11.9077633 C135.404222,11.9077633 135.68027,12.0687292 135.841895,12.2976892 C136.066452,12.626559 136.017822,13.130271 135.904828,13.4813431 C135.766089,13.8865329 135.505774,14.2376049 135.143907,14.4887671 C134.806356,14.7413169 134.370114,14.9008951 133.893823,14.9466871 C133.519084,14.9855409 133.105726,14.9619511 132.709533,14.8259628 C132.433484,14.7413169 132.157436,14.6261431 131.909994,14.4513009 C131.658261,14.2833969 131.409388,14.0919031 131.186261,13.8712689 C130.798649,13.4966071 130.485413,13.0456252 130.149292,12.5877052 C129.711619,11.9840833 129.236759,11.3277313 128.588832,10.8087553 C128.86345,11.2888775 128.999329,11.8467073 128.950698,12.4420034 C128.91065,13.1219452 128.575959,13.7186289 128.088226,14.1224311 C127.600493,14.5359467 126.938263,14.7787831 126.240276,14.7329911 C125.878409,14.7107889 125.516543,14.5886769 125.214749,14.3819191 C124.941561,14.2140151 124.742749,13.9919933 124.592568,13.7408311 C124.455259,13.4813431 124.380883,13.206591 124.380883,12.8777212 C124.36658,12.2824252 124.679816,11.5414273 125.392107,11.5414273 C125.891282,11.5414273 126.288906,11.9313532 126.288906,12.4045372 C126.288906,12.8929852 125.891282,13.2745852 125.392107,13.2745852 C125.26624,13.2745852 125.140373,13.252383 125.03024,13.206591 C125.054555,13.2898492 125.090313,13.374495 125.128931,13.4577532 C125.352058,13.8629431 125.829779,14.1141053 126.288906,14.1376951 C126.815257,14.1765489 127.313002,14.0086449 127.689172,13.6881009 C128.063911,13.374495 128.312784,12.916575 128.351402,12.397599 C128.398602,11.7245953 128.162602,11.1057095 127.737802,10.6325255 C127.564736,10.4410316 127.351621,10.2731276 127.101318,10.1288134 C126.502021,9.78467959 125.766846,9.73888759 125.090313,9.88458942 C124.491016,10.0289036 123.978968,10.3341836 123.506968,10.7241095 C122.594435,11.4498433 121.834945,12.4198012 120.932424,13.191327 C120.496182,13.5729271 120.024182,13.9239991 119.473516,14.2140151 C118.748353,14.5970027 117.862996,14.8564908 116.976208,14.9466871 C116.162366,15.046597 115.3285,15.0008049 114.579022,14.8176369 C111.831411,14.2598071 109.45997,11.4803713 107.723583,9.45580976 C107.561959,9.25737775 107.386032,9.05894574 107.248723,8.90630573 C106.47493,8.00572968 105.701136,7.13568164 104.877282,6.34889178 C104.077743,5.5843041 103.229574,4.91268807 102.317041,4.43950405 C100.65503,3.58333237 98.9458187,3.41542836 97.4082438,3.73597237 C95.7247781,4.08843203 94.2758819,5.03480008 93.3790825,6.29477396 C92.3149376,7.78370785 92.2162468,9.43360757 92.7154222,10.8698113 C93.0000524,11.6635393 93.476343,12.397599 94.0885123,12.9845692 C94.6892393,13.5729271 95.4129722,14.0086449 96.2125111,14.2376049 C97.4339892,14.5886769 98.8213824,14.4277111 100.131539,13.4730172 C100.931078,12.8929852 101.405938,12.0534652 101.528944,11.1598273 C101.60332,10.6866433 101.568993,10.1898694 101.430254,9.71529777 C101.104145,8.58576171 100.23166,7.66992167 98.9830065,7.49369184 C98.5582068,7.43263584 98.1205343,7.47148966 97.6957345,7.60886566 C97.873092,7.76150567 97.9703526,7.98213986 97.9703526,8.23468969 C97.9703526,8.70787372 97.5727285,9.09779956 97.0864258,9.09779956 C96.58582,9.09779956 96.1867657,8.70787372 96.1867657,8.23468969 C96.1867657,7.63939366 96.8103775,7.180086 97.3467408,7.012182 C97.8974071,6.82901399 98.5338916,6.84566562 99.0573822,6.91365981 C100.543466,7.11903 101.60332,8.18889769 102.005235,9.5182534 C102.178302,10.0899596 102.21835,10.6699916 102.129671,11.2430855 C101.97949,12.2824252 101.418811,13.267647 100.494836,13.9475889 C99.0201944,15.0243948 97.4339892,15.2061751 96.0351537,14.8023729 C95.1497966,14.5498231 94.3273728,14.0530493 93.6637126,13.3966972 C92.9886099,12.7472834 92.4651193,11.9466172 92.1404407,11.0446535 C92.0918105,10.8920135 92.0403196,10.7310476 92.0031317,10.5714695 C91.9530711,10.7310476 91.9030106,10.8920135 91.85295,11.0446535 C91.5397138,11.9466172 91.0047808,12.7472834 90.3411206,13.3966972 C89.6688785,14.0530493 88.8564669,14.5498231 87.9582371,14.8023729 C86.5594015,15.2061751 84.9874994,15.0243948 83.4999851,13.9475889 C82.5760098,13.267647 82.0153314,12.2824252 81.8665799,11.2430855 C81.7779012,10.6699916 81.8265315,10.0899596 81.9881556,9.5182534 C82.401513,8.18889769 83.4642275,7.11903 84.9360085,6.91365981 C85.4738021,6.84566562 86.1088563,6.82901399 86.6595227,7.012182 C87.195886,7.180086 87.8080553,7.63939366 87.8080553,8.23468969 C87.8080553,8.70787372 87.4075707,9.09779956 86.921268,9.09779956 C86.4220925,9.09779956 86.0216079,8.70787372 86.0216079,8.23468969 C86.0216079,7.98213986 86.1202987,7.76150567 86.2976562,7.60886566 C85.8842989,7.47148966 85.4480567,7.43263584 85.0218266,7.49369184 C83.7746031,7.66992167 82.9006884,8.58576171 82.5631371,9.71529777 C82.4243978,10.1898694 82.401513,10.6866433 82.4644463,11.1598273 C82.5888826,12.0534652 83.0766156,12.8929852 83.8747242,13.4730172 C85.1720084,14.4277111 86.5594015,14.5886769 87.7951826,14.2376049 C88.5818488,14.0086449 89.3070121,13.5729271 89.9191814,12.9845692 C90.5170477,12.397599 90.9933384,11.6635393 91.2808291,10.8698113 C91.7800046,9.43360757 91.6784531,7.78370785 90.6314719,6.29477396 C89.7303815,5.03480008 88.2700429,4.08843203 86.5851469,3.73597237 C85.0618751,3.41542836 83.3383609,3.58333237 81.6763497,4.43950405 C80.7666775,4.91268807 79.9299507,5.5843041 79.1189694,6.34889178 C78.3036971,7.13568164 77.5184612,8.00572968 76.746098,8.90630573 C76.6073587,9.05894574 76.4471649,9.25737775 76.2698074,9.45580976 C74.5362811,11.4803713 72.1619794,14.2598071 69.4286719,14.8176369 C68.6648905,15.0008049 67.8424667,15.046597 67.0186127,14.9466871 C66.130395,14.8564908 65.2564803,14.5970027 64.521305,14.2140151 C63.986372,13.9239991 63.5100813,13.5729271 63.0724089,13.191327 C62.1756094,12.4198012 61.4003856,11.4498433 60.5007255,10.7241095 C60.0144227,10.3341836 59.5023745,10.0289036 58.9030779,9.88458942 C58.2279753,9.73888759 57.5028121,9.78467959 56.8935033,10.1288134 C56.6560731,10.2731276 56.4429581,10.4410316 56.2555885,10.6325255 C55.8422312,11.1057095 55.6062313,11.7245953 55.6434192,12.397599 C55.6820373,12.916575 55.9309099,13.374495 56.3056491,13.6881009 C56.6803883,14.0086449 57.1809941,14.1765489 57.7159271,14.1376951 C58.1779147,14.1141053 58.6399023,13.8629431 58.8658901,13.4577532 C58.9145203,13.374495 58.9402658,13.2898492 58.9631506,13.206591 C58.8530173,13.252383 58.7271507,13.2745852 58.6041448,13.2745852 C58.103539,13.2745852 57.7044847,12.8929852 57.7044847,12.4045372 C57.7044847,11.9313532 58.103539,11.5414273 58.6041448,11.5414273 C59.3135747,11.5414273 59.6382533,12.2824252 59.6125078,12.8777212 C59.6125078,13.206591 59.5381321,13.4813431 59.4008231,13.7408311 C59.2649444,13.9919933 59.0518294,14.2140151 58.7786416,14.3819191 C58.4782782,14.5886769 58.1292844,14.7107889 57.7531149,14.7329911 C57.0551275,14.7787831 56.40434,14.5359467 55.9051645,14.1224311 C55.4174314,13.7186289 55.0941831,13.1219452 55.0426922,12.4420034 C55.008365,11.8467073 55.1442437,11.2888775 55.405989,10.8087553 C54.7566318,11.3277313 54.2960745,11.9840833 53.858402,12.5877052 C53.5208507,13.0456252 53.1976024,13.4966071 52.8214329,13.8712689 C52.5840027,14.0919031 52.3480029,14.2833969 52.0977,14.4513009 C51.8359547,14.6261431 51.5727791,14.7413169 51.283858,14.8259628 C50.8876643,14.9619511 50.4857494,14.9855409 50.0995678,14.9466871 C49.6232772,14.9008951 49.1999077,14.7413169 48.850914,14.4887671 C48.4890475,14.2376049 48.2273022,13.8865329 48.0885629,13.4813431 C47.9769993,13.130271 47.9398115,12.626559 48.1643689,12.2976892 C48.3245628,12.0687292 48.6006111,11.9077633 48.8995442,11.9077633 C49.3987197,11.9077633 49.8006346,12.2976892 49.8006346,12.7778114 C49.8006346,13.252383 49.3987197,13.6423089 48.8995442,13.6423089 L48.8380413,13.6423089 C48.9395927,13.7866231 49.064029,13.9087351 49.2127804,14.0155831 C49.4745257,14.2140151 49.8006346,14.3291889 50.1625011,14.3666551 C50.4628646,14.4055089 50.7846826,14.3666551 51.1122218,14.2681329 C51.3353489,14.1987511 51.5484639,14.1002289 51.761579,13.9545271 C51.9732637,13.8240893 52.1863787,13.6575729 52.3851907,13.4508151 C52.7341845,13.1219452 53.0345479,12.6945532 53.3592265,12.2435714 C54.0944019,11.2208833 54.9068135,10.0899596 56.4687036,9.5335174 C57.2410667,9.25737775 58.165042,9.12000174 58.9903264,9.30455739 C59.6883138,9.44887157 60.2632953,9.77774141 60.8025193,10.1898694 C61.7508096,10.9544571 62.5374758,11.9466172 63.4714632,12.7556092 C63.8719478,13.099743 64.30819,13.4202871 64.8073655,13.6881009 C65.0962865,13.8476791 65.4066621,13.9697911 65.732771,14.0766391 C64.9575472,13.5576631 64.3339354,12.7778114 64.0721901,11.8924993 C63.6960206,10.6477895 64.0578871,9.44887157 64.8202382,8.45671152 C65.3952197,7.73097767 66.2047707,7.28832165 67.0672429,7.17314782 C67.9182728,7.057974 68.827945,7.25640601 69.5788536,7.79897185 C70.0522837,8.15004387 70.3769623,8.6232279 70.5514591,9.13526574 C70.6530106,9.43360757 70.6887682,9.75415159 70.6758954,10.0677574 C70.6530106,10.6477895 70.4756531,11.3277313 69.7161626,11.3277313 C69.2169872,11.3277313 68.8165026,10.9378055 68.8165026,10.4576833 C68.8165026,9.9831116 69.2169872,9.5793094 69.7161626,9.5793094 C69.8391686,9.5793094 69.9521625,9.6098374 70.0522837,9.65424177 C70.0394109,9.5335174 70.0150958,9.42528176 69.977908,9.31149557 C69.8391686,8.91463155 69.5902961,8.53996971 69.2169872,8.27215588 C68.6048178,7.82256167 67.8553395,7.65465767 67.1416187,7.75317985 C66.4450615,7.84476386 65.7685285,8.21109988 65.3079712,8.80778354 C64.658614,9.65424177 64.3339354,10.6699916 64.6471716,11.7245953 C64.9346624,12.6945532 65.6941528,13.4577532 66.6066856,13.8934711 C70.2167684,15.6196908 73.5736877,11.6940673 75.8092501,9.08253556 C75.9580015,8.90630573 76.1081832,8.72313772 76.2826801,8.52470571 C77.0707766,7.61580384 77.8688853,6.72216598 78.6941696,5.93537612 C79.5423388,5.1347099 80.4291262,4.43117823 81.3902893,3.93440438 C83.1996216,3.00330034 85.0618751,2.82013233 86.7095832,3.15594034 C88.544661,3.54586618 90.1423085,4.57688005 91.1163444,5.96729176 C91.5397138,6.56120015 91.8272046,7.180086 92.0031317,7.81423585 C92.1661862,7.180086 92.4536769,6.56120015 92.8784767,5.96729176 C93.8625246,4.57688005 95.4487298,3.54586618 97.2866681,3.15594034 C98.9458187,2.82013233 100.805212,3.00330034 102.603101,3.93440438 C103.577137,4.43117823 104.465355,5.1347099 105.299221,5.93537612 C106.137378,6.72216598 106.925475,7.61580384 107.710711,8.52470571 C107.886638,8.72313772 108.035389,8.90630573 108.197013,9.08253556 C110.421133,11.6940673 113.778053,15.6196908 117.386705,13.8934711 C118.299238,13.4577532 119.060159,12.6945532 119.346219,11.7245953 C119.660886,10.6699916 119.346219,9.65424177 118.685419,8.80778354 C118.224862,8.21109988 117.564063,7.84476386 116.851772,7.75317985 C116.139482,7.65465767 115.402876,7.82256167 114.789276,8.27215588 C114.415967,8.53996971 114.152792,8.91463155 114.029786,9.31149557 C113.989737,9.42528176 113.95398,9.5335174 113.941107,9.65424177 C114.041228,9.6098374 114.167095,9.5793094 114.277228,9.5793094 C114.776404,9.5793094 115.176888,9.9831116 115.176888,10.4576833 C115.176888,10.9378055 114.776404,11.3277313 114.277228,11.3277313 C113.52918,11.3277313 113.34038,10.6477895 113.316065,10.0677574 C113.306053,9.75415159 113.34038,9.43360757 113.443362,9.13526574 C113.616428,8.6232279 113.941107,8.15004387 114.415967,7.79897185 C115.164015,7.25640601 116.076548,7.057974 116.93759,7.17314782 C117.800062,7.28832165 118.611044,7.73097767 119.173153,8.45671152 C119.946946,9.44887157 120.29737,10.6477895 119.935504,11.8924993 C119.660886,12.7778114 119.047286,13.5576631 118.26062,14.0766391" id="Fill-53" fill="#796486" mask="url(#mask-8)"></path>
            </g>
        </g>
    </g>
</svg>