<?xml version="1.0" encoding="UTF-8"?>
<svg width="34px" height="26px" viewBox="0 0 34 26" version="1.1" xmlns="http://www.w3.org/2000/svg" xmlns:xlink="http://www.w3.org/1999/xlink">
    <!-- Generator: Sketch 61.2 (89653) - https://sketch.com -->
    <title>“</title>
    <desc>Created with Sketch.</desc>
    <g id="Page-1" stroke="none" stroke-width="1" fill="none" fill-rule="evenodd" opacity="0.6">
        <g id="Desktop-HD" transform="translate(-755.000000, -2440.000000)" fill="#895D8E" fill-rule="nonzero">
            <g id="Group-5" transform="translate(438.000000, 2440.000000)">
                <path d="M328.056235,0.30420548 C328.887535,-0.1915358 329.649548,-0.0813727238 330.342298,0.634698014 C331.035048,1.35076875 331.048903,2.06682875 330.383863,2.78289948 C328.721263,4.43537042 327.557461,5.75732733 326.892421,6.74880989 C326.227381,7.74029245 325.811737,8.81438245 325.645477,9.9711121 C325.479217,11.017677 325.784022,11.5409516 326.559902,11.5409516 C328.056242,11.5409516 329.330883,12.1743893 330.383863,13.4412837 C331.436843,14.7081781 331.963325,16.3330835 331.963325,18.3160486 C331.963325,20.6295079 331.298295,22.4885098 329.968215,23.8931101 C328.638135,25.2977104 326.864722,26 324.647922,26 C322.541962,26 320.740839,25.2150881 319.244499,23.6452407 C317.748159,22.0753933 317,19.9409837 317,17.2419478 C317,10.5769818 320.685375,4.93112409 328.056235,0.30420548 Z M347.176039,0.30420548 C348.007339,-0.1915358 348.769353,-0.0813727238 349.462103,0.634698014 C350.154853,1.35076875 350.140998,2.06682875 349.420538,2.78289948 C347.757938,4.43537042 346.594135,5.75732733 345.929095,6.74880989 C345.264055,7.74029245 344.876121,8.81438245 344.765281,9.9711121 C344.599021,11.017677 344.903827,11.5409516 345.679707,11.5409516 C347.176047,11.5409516 348.436833,12.1743893 349.462103,13.4412837 C350.487373,14.7081781 351,16.3330835 351,18.3160486 C351,20.6295079 350.33497,22.4885098 349.00489,23.8931101 C347.67481,25.2977104 345.929106,26 343.767726,26 C341.606346,26 339.791368,25.2150881 338.322738,23.6452407 C336.854108,22.0753933 336.119804,19.9409837 336.119804,17.2419478 C336.119804,10.5769818 339.805179,4.93112409 347.176039,0.30420548 Z" id="“"></path>
            </g>
        </g>
    </g>
</svg>